name p8_grf_mean_speed_1.6
datacolumns 13
datarows 68
range 0.0000000000 0.6700000000
endheader
time	grf_x_l_mean	grf_x_l_var	grf_y_l_mean	grf_y_l_var	grf_z_l_mean	grf_z_l_var	grf_x_r_mean	grf_x_r_var	grf_y_r_mean	grf_y_r_var	grf_z_r_mean	grf_z_r_var
0.0000000000	164.6667872232	1.0000000000	635.6192085230	1.0000000000	0.0000000000	0.0000000000	3.1538480953	1.0000000000	11.5170981012	1.0000000000	0.0000000000	0.0000000000
0.0100000000	173.3527246076	1.0000000000	615.1891689318	1.0000000000	0.0000000000	0.0000000000	1.1114230385	1.0000000000	54.4877071734	1.0000000000	0.0000000000	0.0000000000
0.0200000000	177.6911341587	1.0000000000	582.7947375861	1.0000000000	0.0000000000	0.0000000000	-4.6622488275	1.0000000000	126.1336113381	1.0000000000	0.0000000000	0.0000000000
0.0300000000	176.1693379069	1.0000000000	537.7103345004	1.0000000000	0.0000000000	0.0000000000	-16.8106010404	1.0000000000	225.1956239608	1.0000000000	0.0000000000	0.0000000000
0.0400000000	166.9869876118	1.0000000000	480.0142690164	1.0000000000	0.0000000000	0.0000000000	-37.8868165848	1.0000000000	340.3095829280	1.0000000000	0.0000000000	0.0000000000
0.0500000000	148.7647226413	1.0000000000	411.1932772231	1.0000000000	0.0000000000	0.0000000000	-65.1374829724	1.0000000000	454.4906675710	1.0000000000	0.0000000000	0.0000000000
0.0600000000	123.5815399104	1.0000000000	335.4955869327	1.0000000000	0.0000000000	0.0000000000	-92.3084842941	1.0000000000	554.2686155015	1.0000000000	0.0000000000	0.0000000000
0.0700000000	94.7522659818	1.0000000000	259.7046364819	1.0000000000	0.0000000000	0.0000000000	-115.2868695263	1.0000000000	632.9277816924	1.0000000000	0.0000000000	0.0000000000
0.0800000000	66.0122320346	1.0000000000	190.1688095138	1.0000000000	0.0000000000	0.0000000000	-133.2127313534	1.0000000000	691.5541360519	1.0000000000	0.0000000000	0.0000000000
0.0900000000	41.5685101983	1.0000000000	131.2201605814	1.0000000000	0.0000000000	0.0000000000	-145.9866788195	1.0000000000	736.8420146965	1.0000000000	0.0000000000	0.0000000000
0.1000000000	23.2332003469	1.0000000000	85.0940085769	1.0000000000	0.0000000000	0.0000000000	-152.8026705905	1.0000000000	773.7835172493	1.0000000000	0.0000000000	0.0000000000
0.1100000000	10.6866472196	1.0000000000	51.7548572938	1.0000000000	0.0000000000	0.0000000000	-154.5317103721	1.0000000000	803.1647378134	1.0000000000	0.0000000000	0.0000000000
0.1200000000	2.6140169976	1.0000000000	29.2576085216	1.0000000000	0.0000000000	0.0000000000	-151.7538853502	1.0000000000	824.2533390455	1.0000000000	0.0000000000	0.0000000000
0.1300000000	-1.0633609079	1.0000000000	15.3101765147	1.0000000000	0.0000000000	0.0000000000	-145.1090168387	1.0000000000	837.1039301310	1.0000000000	0.0000000000	0.0000000000
0.1400000000	-1.8027126388	1.0000000000	8.0902952881	1.0000000000	0.0000000000	0.0000000000	-135.9232296439	1.0000000000	842.4139344146	1.0000000000	0.0000000000	0.0000000000
0.1500000000	-1.4255934635	1.0000000000	5.4226777692	1.0000000000	0.0000000000	0.0000000000	-125.5176482596	1.0000000000	840.1373588531	1.0000000000	0.0000000000	0.0000000000
0.1600000000	-0.5457463744	1.0000000000	5.0501180979	1.0000000000	0.0000000000	0.0000000000	-113.7470925489	1.0000000000	829.9368276604	1.0000000000	0.0000000000	0.0000000000
0.1700000000	0.3980977969	1.0000000000	5.4189310441	1.0000000000	0.0000000000	0.0000000000	-100.9135708010	1.0000000000	812.7814288319	1.0000000000	0.0000000000	0.0000000000
0.1800000000	1.0360400525	1.0000000000	5.8742348770	1.0000000000	0.0000000000	0.0000000000	-88.3270630709	1.0000000000	790.4200765855	1.0000000000	0.0000000000	0.0000000000
0.1900000000	1.3839712183	1.0000000000	6.3097411625	1.0000000000	0.0000000000	0.0000000000	-76.0407556170	1.0000000000	763.9461564898	1.0000000000	0.0000000000	0.0000000000
0.2000000000	1.7603739265	1.0000000000	6.3379261497	1.0000000000	0.0000000000	0.0000000000	-64.1160221618	1.0000000000	733.6555772876	1.0000000000	0.0000000000	0.0000000000
0.2100000000	1.5993396707	1.0000000000	5.5552735112	1.0000000000	0.0000000000	0.0000000000	-53.0194286596	1.0000000000	699.8755545483	1.0000000000	0.0000000000	0.0000000000
0.2200000000	1.0000943959	1.0000000000	4.3073399741	1.0000000000	0.0000000000	0.0000000000	-43.1987726887	1.0000000000	663.6122692051	1.0000000000	0.0000000000	0.0000000000
0.2300000000	0.4883667227	1.0000000000	3.1681232441	1.0000000000	0.0000000000	0.0000000000	-34.1082136669	1.0000000000	626.7969321971	1.0000000000	0.0000000000	0.0000000000
0.2400000000	0.1413596463	1.0000000000	2.3416359175	1.0000000000	0.0000000000	0.0000000000	-26.0189607651	1.0000000000	591.6384119646	1.0000000000	0.0000000000	0.0000000000
0.2500000000	-0.1245712237	1.0000000000	1.7698173093	1.0000000000	0.0000000000	0.0000000000	-19.2428836059	1.0000000000	559.1152858232	1.0000000000	0.0000000000	0.0000000000
0.2600000000	-0.1189037501	1.0000000000	1.4320721062	1.0000000000	0.0000000000	0.0000000000	-13.1559352386	1.0000000000	529.2370487133	1.0000000000	0.0000000000	0.0000000000
0.2700000000	0.0623120507	1.0000000000	1.2616053995	1.0000000000	0.0000000000	0.0000000000	-7.6901120332	1.0000000000	502.5502202715	1.0000000000	0.0000000000	0.0000000000
0.2800000000	-0.0037821536	1.0000000000	1.1594914565	1.0000000000	0.0000000000	0.0000000000	-3.1444264659	1.0000000000	480.2883122081	1.0000000000	0.0000000000	0.0000000000
0.2900000000	-0.1464472525	1.0000000000	1.1540521435	1.0000000000	0.0000000000	0.0000000000	0.7436146958	1.0000000000	463.1504163181	1.0000000000	0.0000000000	0.0000000000
0.3000000000	-0.2219562332	1.0000000000	1.2031488630	1.0000000000	0.0000000000	0.0000000000	4.4610484820	1.0000000000	450.5432052246	1.0000000000	0.0000000000	0.0000000000
0.3100000000	-0.3707993721	1.0000000000	1.2080846198	1.0000000000	0.0000000000	0.0000000000	7.9717164307	1.0000000000	441.5594393202	1.0000000000	0.0000000000	0.0000000000
0.3200000000	-0.4944746629	1.0000000000	1.1676642445	1.0000000000	0.0000000000	0.0000000000	11.4529771718	1.0000000000	436.2695508508	1.0000000000	0.0000000000	0.0000000000
0.3300000000	-0.2918162005	1.0000000000	1.1803888066	1.0000000000	0.0000000000	0.0000000000	15.2102265193	1.0000000000	435.3619449648	1.0000000000	0.0000000000	0.0000000000
0.3400000000	-0.0228273334	1.0000000000	1.3175424397	1.0000000000	0.0000000000	0.0000000000	19.2195673520	1.0000000000	438.5636137724	1.0000000000	0.0000000000	0.0000000000
0.3500000000	0.0286232341	1.0000000000	1.5140729110	1.0000000000	0.0000000000	0.0000000000	23.4113546377	1.0000000000	444.6449259352	1.0000000000	0.0000000000	0.0000000000
0.3600000000	-0.0268256586	1.0000000000	1.6815180155	1.0000000000	0.0000000000	0.0000000000	28.2191517547	1.0000000000	453.0073597182	1.0000000000	0.0000000000	0.0000000000
0.3700000000	-0.1260404538	1.0000000000	1.8724038533	1.0000000000	0.0000000000	0.0000000000	33.6585956165	1.0000000000	463.9377461890	1.0000000000	0.0000000000	0.0000000000
0.3800000000	-0.2779337710	1.0000000000	2.1797085880	1.0000000000	0.0000000000	0.0000000000	39.5449826965	1.0000000000	477.5592994639	1.0000000000	0.0000000000	0.0000000000
0.3900000000	-0.3083517766	1.0000000000	2.5485022275	1.0000000000	0.0000000000	0.0000000000	46.2381185882	1.0000000000	493.3495805911	1.0000000000	0.0000000000	0.0000000000
0.4000000000	-0.1599903804	1.0000000000	2.7992803090	1.0000000000	0.0000000000	0.0000000000	53.9098122922	1.0000000000	510.4949912978	1.0000000000	0.0000000000	0.0000000000
0.4100000000	-0.1319667248	1.0000000000	2.7336660884	1.0000000000	0.0000000000	0.0000000000	62.5215694167	1.0000000000	528.3129630595	1.0000000000	0.0000000000	0.0000000000
0.4200000000	-0.1683209816	1.0000000000	2.1072490491	1.0000000000	0.0000000000	0.0000000000	72.1261915285	1.0000000000	546.4265172498	1.0000000000	0.0000000000	0.0000000000
0.4300000000	-0.0018857239	1.0000000000	0.6268798694	1.0000000000	0.0000000000	0.0000000000	82.8737014670	1.0000000000	564.6231448710	1.0000000000	0.0000000000	0.0000000000
0.4400000000	0.0000000000	1.0000000000	0.0000000000	1.0000000000	0.0000000000	0.0000000000	94.5918859673	1.0000000000	582.2770164754	1.0000000000	0.0000000000	0.0000000000
0.4500000000	0.0000000000	1.0000000000	0.0000000000	1.0000000000	0.0000000000	0.0000000000	107.2326442786	1.0000000000	597.9732366783	1.0000000000	0.0000000000	0.0000000000
0.4600000000	0.0000000000	1.0000000000	0.0000000000	1.0000000000	0.0000000000	0.0000000000	120.8815230845	1.0000000000	610.1094888169	1.0000000000	0.0000000000	0.0000000000
0.4700000000	0.0000000000	1.0000000000	0.0000000000	1.0000000000	0.0000000000	0.0000000000	135.0820271710	1.0000000000	617.6378876749	1.0000000000	0.0000000000	0.0000000000
0.4800000000	0.0000000000	1.0000000000	0.0000000000	1.0000000000	0.0000000000	0.0000000000	149.0927381479	1.0000000000	619.6450924361	1.0000000000	0.0000000000	0.0000000000
0.4900000000	0.8352975663	1.0000000000	3.9765180114	1.0000000000	0.0000000000	0.0000000000	162.1293057009	1.0000000000	614.2402432267	1.0000000000	0.0000000000	0.0000000000
0.5000000000	-3.0039870193	1.0000000000	38.8665378370	1.0000000000	0.0000000000	0.0000000000	172.9409295525	1.0000000000	598.7744226619	1.0000000000	0.0000000000	0.0000000000
0.5100000000	-10.5332873207	1.0000000000	101.6118983452	1.0000000000	0.0000000000	0.0000000000	179.7310581125	1.0000000000	571.2420425842	1.0000000000	0.0000000000	0.0000000000
0.5200000000	-23.0938455216	1.0000000000	194.5460469817	1.0000000000	0.0000000000	0.0000000000	180.5671177149	1.0000000000	530.8970549765	1.0000000000	0.0000000000	0.0000000000
0.5300000000	-42.5720625152	1.0000000000	309.7207738727	1.0000000000	0.0000000000	0.0000000000	173.6273883625	1.0000000000	478.0028414707	1.0000000000	0.0000000000	0.0000000000
0.5400000000	-69.4763256173	1.0000000000	429.7953189165	1.0000000000	0.0000000000	0.0000000000	157.6974378030	1.0000000000	413.7964674542	1.0000000000	0.0000000000	0.0000000000
0.5500000000	-99.6087272290	1.0000000000	537.8423207919	1.0000000000	0.0000000000	0.0000000000	133.9038794212	1.0000000000	341.3368399750	1.0000000000	0.0000000000	0.0000000000
0.5600000000	-127.0148427959	1.0000000000	624.9314308943	1.0000000000	0.0000000000	0.0000000000	106.1676708385	1.0000000000	266.4928522763	1.0000000000	0.0000000000	0.0000000000
0.5700000000	-148.7272356248	1.0000000000	690.6226358850	1.0000000000	0.0000000000	0.0000000000	78.2905847319	1.0000000000	196.3986963954	1.0000000000	0.0000000000	0.0000000000
0.5800000000	-164.3016624394	1.0000000000	740.5809318208	1.0000000000	0.0000000000	0.0000000000	53.2979377921	1.0000000000	136.5177254709	1.0000000000	0.0000000000	0.0000000000
0.5900000000	-173.0588300202	1.0000000000	781.0418321151	1.0000000000	0.0000000000	0.0000000000	33.4594022656	1.0000000000	89.2616565578	1.0000000000	0.0000000000	0.0000000000
0.6000000000	-174.7533575886	1.0000000000	814.6402771931	1.0000000000	0.0000000000	0.0000000000	19.1843234131	1.0000000000	54.8071197898	1.0000000000	0.0000000000	0.0000000000
0.6100000000	-170.9888505126	1.0000000000	841.0325717681	1.0000000000	0.0000000000	0.0000000000	9.8572635566	1.0000000000	31.9944608417	1.0000000000	0.0000000000	0.0000000000
0.6200000000	-163.0477006467	1.0000000000	859.0148331861	1.0000000000	0.0000000000	0.0000000000	4.6515903183	1.0000000000	18.4188668700	1.0000000000	0.0000000000	0.0000000000
0.6300000000	-151.9822993570	1.0000000000	867.6086781596	1.0000000000	0.0000000000	0.0000000000	2.5967059704	1.0000000000	11.3992604340	1.0000000000	0.0000000000	0.0000000000
0.6400000000	-139.2787301585	1.0000000000	866.2551606218	1.0000000000	0.0000000000	0.0000000000	1.9072950657	1.0000000000	8.6246542340	1.0000000000	0.0000000000	0.0000000000
0.6500000000	-126.0018632739	1.0000000000	855.1790760671	1.0000000000	0.0000000000	0.0000000000	1.5450425559	1.0000000000	8.0271122478	1.0000000000	0.0000000000	0.0000000000
0.6600000000	-112.3007323443	1.0000000000	835.7035495822	1.0000000000	0.0000000000	0.0000000000	1.4354463540	1.0000000000	7.9965108862	1.0000000000	0.0000000000	0.0000000000
0.6700000000	-98.7220308293	1.0000000000	809.4790729311	1.0000000000	0.0000000000	0.0000000000	1.3116949064	1.0000000000	7.8537363960	1.0000000000	0.0000000000	0.0000000000
